<svg width="153" height="40" viewBox="0 0 153 40" fill="none" xmlns="http://www.w3.org/2000/svg">
<g clip-path="url(#clip0_1_192)">
<path d="M31.2569 22.8135C30.438 21.8709 29.0122 21.7677 28.0664 22.5805C28.0635 22.583 28.0552 22.5899 28.0419 22.6007C28.0141 22.6233 27.9643 22.6629 27.8939 22.7156C27.7526 22.8212 27.5319 22.9771 27.2446 23.1525C26.663 23.5076 25.8469 23.9186 24.8885 24.1746C24.1252 24.3785 23.2299 24.3318 22.4288 24.1811C22.0458 24.109 21.7234 24.0207 21.5025 23.9523C21.3929 23.9184 21.3107 23.8901 21.2612 23.8725C21.2525 23.8693 21.2448 23.8666 21.2382 23.8641C21.233 23.8623 21.2284 23.8606 21.2245 23.8591L21.2129 23.8548L21.2098 23.8536C20.0483 23.3967 18.7349 23.9646 18.2727 25.1254C17.8092 26.2893 18.3769 27.6085 19.5406 28.0722L20.3799 25.9647C19.5406 28.0722 19.5412 28.0724 19.5418 28.0727L19.5455 28.074L19.5514 28.0764L19.5662 28.0823L19.6075 28.098C19.6402 28.1105 19.6831 28.1263 19.7357 28.1452C19.8406 28.1825 19.9843 28.2316 20.1612 28.2862C20.5131 28.3953 21.0056 28.5299 21.5903 28.6398C22.7247 28.8533 24.3763 29.0074 26.0588 28.5579C27.5463 28.1607 28.7656 27.5392 29.608 27.025C30.0326 26.7658 30.3711 26.5279 30.611 26.3485C30.7313 26.2586 30.8275 26.1828 30.8979 26.1256C30.9331 26.097 30.9621 26.073 30.9845 26.0542L31.0133 26.0299L31.024 26.0208L31.0282 26.017L31.0304 26.0153L31.0312 26.0145C31.0317 26.0141 31.032 26.0137 29.5445 24.3012L31.032 26.0137C31.9777 25.1921 32.0785 23.7593 31.2569 22.8135Z" fill="#181D14"/>
<path d="M25.3397 14.8659C25.3397 13.0237 26.833 11.5303 28.675 11.5303C30.5169 11.5303 32.0103 13.0237 32.0103 14.8659C32.0103 16.7082 30.5169 18.2016 28.675 18.2016C26.833 18.2016 25.3397 16.7082 25.3397 14.8659Z" fill="#181D14"/>
<path d="M16.3416 11.5303C14.4996 11.5303 13.0063 13.0237 13.0063 14.8659C13.0063 16.7082 14.4996 18.2016 16.3416 18.2016C18.1836 18.2016 19.6769 16.7082 19.6769 14.8659C19.6769 13.0237 18.1836 11.5303 16.3416 11.5303Z" fill="#181D14"/>
<path fill-rule="evenodd" clip-rule="evenodd" d="M11.0611 0.502452C6.71966 -1.14059 1.00903 1.31927 0.767853 6.79467C0.624849 10.0413 0.510607 14.3986 0.532322 19.8584C0.554548 25.4469 0.682078 29.8765 0.822907 33.1389C1.05267 38.4613 6.52115 41.0638 10.877 39.5722C18.9182 36.8187 27.1329 36.819 35.1741 39.5735C39.5277 41.0646 44.9995 38.465 45.2378 33.1463C45.3866 29.8232 45.5167 25.3443 45.5151 19.8472C45.5137 14.5522 45.393 10.2022 45.2514 6.91992C45.0144 1.42592 39.2638 -1.10128 34.8798 0.542578C27.0112 3.49304 18.9289 3.48009 11.0611 0.502452ZM6.05513 7.02763C6.08262 6.40384 6.40402 5.91201 6.97346 5.59137C7.57566 5.25226 8.39994 5.15468 9.18799 5.45293C18.2566 8.88503 27.6652 8.9007 36.7378 5.49875C37.5335 5.20043 38.3796 5.30062 39.0071 5.65712C39.6045 5.99634 39.9366 6.51271 39.9638 7.14794C40.1024 10.359 40.2216 14.6333 40.2226 19.8486C40.2242 25.2617 40.0963 29.6608 39.9507 32.9093C39.923 33.5281 39.6042 34.0309 39.0433 34.3647C38.4553 34.7145 37.6574 34.8291 36.8889 34.566C27.7363 31.4308 18.3153 31.4305 9.16264 34.5646C8.39304 34.828 7.59725 34.7126 7.01246 34.3642C6.45493 34.0317 6.13716 33.5305 6.11039 32.9104C5.97252 29.717 5.84665 25.3565 5.82469 19.8374C5.80331 14.4626 5.91585 10.19 6.05513 7.02763Z" fill="#181D14"/>
<path d="M63.4212 38.0035C63.4212 38.8868 62.7052 39.6031 61.8218 39.6031H58.8022C57.9188 39.6031 57.2028 38.8868 57.2028 38.0035V9.40795C57.2028 8.52452 57.9188 7.80835 58.8022 7.80835H61.1925C61.9708 7.80835 62.6362 8.36893 62.7684 9.13618L63.2312 11.8206C63.2338 11.8355 63.2469 11.8464 63.2618 11.8464C63.2741 11.8464 63.2853 11.8391 63.2904 11.8278C64.6389 8.82261 67.3262 7.15857 70.5218 7.15857C76.1837 7.15857 79.8498 12.032 79.8498 19.6903C79.8498 27.3486 76.1837 32.1757 70.5682 32.1757C67.372 32.1757 64.8695 30.5574 63.4756 27.6899C63.4708 27.68 63.4607 27.6736 63.4498 27.6736C63.434 27.6736 63.4212 27.6864 63.4212 27.7021V38.0035ZM68.3871 26.7917C71.5891 26.7917 73.6313 24.0069 73.6313 19.6903C73.6313 15.3274 71.5891 12.589 68.3871 12.589C65.2312 12.589 63.1893 15.3738 63.1893 19.6903C63.1893 24.0069 65.2312 26.7917 68.3871 26.7917Z" fill="#181D14"/>
<path d="M88.2512 32.083C83.796 32.083 80.7332 29.4839 80.7332 25.3993C80.7332 21.1292 83.9815 18.3444 90.2933 17.6482L93.9594 17.184C94.9804 17.0912 95.723 16.4414 95.723 15.2347C95.723 12.9604 94.0986 11.6608 91.8248 11.6608C89.7754 11.6608 88.2909 12.8714 87.6378 14.6168C87.2992 15.5209 86.435 16.2401 85.4858 16.0654L82.8382 15.5782C82.0561 15.4343 81.4806 14.7318 81.6424 13.9532C82.4861 9.89413 86.3447 7.0658 91.8248 7.0658C97.9969 7.0658 101.802 10.5933 101.802 16.2093V26.0491C101.802 27.0237 102.22 27.5809 102.963 27.5809C103.955 27.5809 105.212 27.6355 105.601 28.5486L105.833 29.0928C106.09 29.6934 105.965 30.4055 105.428 30.7779C104.107 31.6959 102.429 32.1293 100.874 32.1293C98.1363 32.1293 96.2799 30.5513 95.8622 28.4161L95.7286 27.7926C95.7252 27.7774 95.7118 27.7664 95.6964 27.7664C95.6841 27.7664 95.6729 27.7731 95.6673 27.784C94.2265 30.4655 91.5854 32.083 88.2512 32.083ZM90.618 27.5345C93.4953 27.5345 95.6303 25.3065 95.6303 21.9647C95.6303 21.2736 95.0262 20.7379 94.3401 20.8205L91.7784 21.1292C88.3906 21.547 86.9519 22.9394 86.9519 24.7031C86.9519 26.4669 88.4833 27.5345 90.618 27.5345Z" fill="#181D14"/>
<path d="M120.585 7.20496C124.901 7.20496 127.546 9.98978 127.546 14.6776V29.9263C127.546 30.8099 126.83 31.5259 125.947 31.5259H122.973C122.09 31.5259 121.374 30.8099 121.374 29.9263V16.0236C121.374 13.6565 120.075 12.2641 117.986 12.2641C115.202 12.2641 113.392 14.2135 113.392 17.3232V29.9263C113.392 30.8099 112.676 31.5259 111.793 31.5259H108.773C107.889 31.5259 107.173 30.8099 107.173 29.9263V9.40793C107.173 8.52449 107.889 7.80833 108.773 7.80833H111.069C111.827 7.80833 112.481 8.34073 112.635 9.08321L113.154 11.5883C113.158 11.6034 113.171 11.6143 113.186 11.6143C113.199 11.6143 113.21 11.6074 113.216 11.5966C114.656 8.82255 117.297 7.20496 120.585 7.20496Z" fill="#181D14"/>
<path d="M140.999 32.3149C133.945 32.3149 129.443 27.3951 129.443 19.644C129.443 11.9393 133.945 7.0658 140.999 7.0658C148.1 7.0658 152.601 11.9393 152.601 19.644C152.601 27.3951 148.1 32.3149 140.999 32.3149ZM140.999 27.024C144.294 27.024 146.382 24.239 146.382 19.644C146.382 15.0954 144.294 12.357 140.999 12.357C137.704 12.357 135.616 15.0954 135.616 19.644C135.616 24.239 137.704 27.024 140.999 27.024Z" fill="#181D14"/>
</g>
<defs>
<clipPath id="clip0_1_192">
<rect width="152.21" height="39.99" fill="white" transform="translate(0.529419)"/>
</clipPath>
</defs>
</svg>
